<svg width="25" height="25" viewBox="0 0 25 25" fill="none" xmlns="http://www.w3.org/2000/svg">
<path d="M20.25 16.0603H19.425V17.9967C17.8937 19.2857 15.9062 19.9944 13.8062 19.9944C9.23125 19.9944 5.53125 16.635 5.53125 12.4944C5.53125 8.35938 9.23125 4.99442 13.8062 4.99442C16.0125 4.99442 18.0938 5.77567 19.6562 7.19308L23.55 3.66071C20.9375 1.30022 17.4813 0 13.7937 0C6.125 0 0 5.61384 0 12.5C0 19.3359 6.0625 25 13.7937 25C17.7437 25 21.575 23.5379 24.4813 20.3962C24.3563 18.856 23.6437 16.0603 20.25 16.0603ZM19.4937 9.78237H12.85V14.7489H20.25C22.3438 14.7489 24.0312 15.5915 25 17.0815V15.3739C25 11.7355 22.475 9.78237 19.4937 9.78237Z" fill="black" fill-opacity="0.6"/>
</svg>
