<svg width="49" height="49" viewBox="0 0 39 39" fill="none" xmlns="http://www.w3.org/2000/svg">
<path d="M18.0625 37.3281C14.875 37.3281 12.4766 36.5547 10.8672 35.0078C9.25781 33.4609 8.45312 31.1641 8.45312 28.1172C8.45312 26.6016 8.67969 24.9219 9.13281 23.0781L14.0312 3.60156C12.6562 3.96094 11.4219 4.48438 10.3281 5.17188C9.23438 5.85938 8.30469 6.66406 7.53906 7.58594C6.80469 8.46094 6.24219 9.42188 5.85156 10.4688C5.47656 11.5 5.28906 12.5625 5.28906 13.6562C5.28906 15.2656 5.70312 16.7969 6.53125 18.25C4.70312 18.25 3.28125 17.8047 2.26562 16.9141C1.26562 16.0234 0.765625 14.7578 0.765625 13.1172C0.765625 12.0703 0.984375 11.0391 1.42188 10.0234C1.875 8.99219 2.51562 8.00781 3.34375 7.07031C4.125 6.16406 5.07812 5.32812 6.20312 4.5625C7.32812 3.79687 8.57031 3.13281 9.92969 2.57031C12.7734 1.39844 15.7344 0.8125 18.8125 0.8125C19.8906 0.8125 20.7891 0.890625 21.5078 1.04688L15.6484 23.2188C15.1016 25.2188 14.8281 26.9453 14.8281 28.3984C14.8281 31.4453 16.0781 32.9688 18.5781 32.9688C22.1094 32.9688 24.5938 29.6719 26.0312 23.0781L30.8125 0.90625H37.5859L32.8984 23.0781C31.8984 27.7656 30.1484 31.3125 27.6484 33.7188C25.1484 36.125 21.9531 37.3281 18.0625 37.3281ZM52.885 37.2812C51.0569 37.2812 49.5803 36.7109" fill="black"/>
</svg>
